<?xml version="1.0" encoding="UTF-8" standalone="no"?>
<svg
   width="512"
   height="512"
   version="1.1"
   id="svg2"
   sodipodi:docname="favicon.svg"
   inkscape:version="1.4.2 (f4327f4, 2025-05-13)"
   xmlns:inkscape="http://www.inkscape.org/namespaces/inkscape"
   xmlns:sodipodi="http://sodipodi.sourceforge.net/DTD/sodipodi-0.dtd"
   xmlns="http://www.w3.org/2000/svg"
   xmlns:svg="http://www.w3.org/2000/svg">
  <sodipodi:namedview
     id="namedview2"
     pagecolor="#ffffff"
     bordercolor="#000000"
     borderopacity="0.25"
     inkscape:showpageshadow="2"
     inkscape:pageopacity="0.0"
     inkscape:pagecheckerboard="0"
     inkscape:deskcolor="#d1d1d1"
     inkscape:zoom="1.1159029"
     inkscape:cx="325.74519"
     inkscape:cy="217.76088"
     inkscape:window-width="1920"
     inkscape:window-height="1010"
     inkscape:window-x="-6"
     inkscape:window-y="-6"
     inkscape:window-maximized="1"
     inkscape:current-layer="svg2" />
  <defs
     id="defs1">
    <style
       type="text/css"
       id="style1">
      @font-face {
        font-family: 'Cormorant Garamond';
        src: url('fonts/CormorantGaramond-Italic.ttf') format('truetype');
      }
    </style>
  </defs>
  <rect
     width="512"
     height="512"
     fill="#fdf8f5"
     id="rect1" />
  <text
     x="54.069885"
     y="397.16486"
     font-size="370px"
     font-family="'Cormorant Garamond'"
     fill="#5c2737"
     id="text1"
     style="font-style:normal;font-variant:normal;font-weight:normal;font-stretch:normal;font-size:433.333px;font-family:'Cormorant Garamond';-inkscape-font-specification:'Cormorant Garamond, Normal';font-variant-ligatures:normal;font-variant-caps:normal;font-variant-numeric:normal;font-variant-east-asian:normal;fill:#5c2737" />
  <path
     d="m 271.3254,463.66255 q -27.96213,0 -53.77331,-18.00868 -25.81119,-17.44589 -46.24504,-45.58445 -20.43387,-28.70133 -32.26397,-61.34206 -11.29241,-33.2035 -11.29241,-63.59313 0,-23.07361 6.99053,-42.20784 7.52827,-19.69699 22.04705,-31.51519 15.05653,-12.38095 37.64132,-12.38095 18.82066,0 29.03759,7.31602 10.75467,6.75325 16.66972,14.06927 5.91506,7.31602 10.21694,7.31602 5.91505,0 16.13197,-6.75325 10.21693,-6.75324 24.198,-12.94374 13.98105,-6.75325 31.1885,-6.75325 23.66026,0 42.48093,17.44592 19.35836,17.44591 19.35836,54.02601 0,24.76195 -9.14146,42.77061 -9.14145,18.00869 -23.66024,30.95242 -13.98106,12.94374 -30.11305,23.63639 -16.13199,10.12988 -30.65079,19.69698 -13.98106,9.56711 -23.12252,20.82254 -9.14146,10.69265 -9.14146,25.3247 0,11.25542 5.37732,18.00867 5.37734,7.31603 12.36788,10.12989 6.99052,2.81384 11.83012,2.81384 5.91505,0 8.60373,-3.37662 3.22639,-3.37663 3.22639,-6.75324 0,-3.37665 -2.68867,-5.62771 -2.68866,-2.2511 -5.91505,-5.06495 -2.68867,-2.81385 -2.68867,-8.44157 0,-6.75325 4.30186,-9.56711 4.30186,-3.37662 8.60373,-3.37662 5.37733,0 9.14146,3.9394 3.76412,3.93939 3.76412,12.38095 0,14.06928 -11.29239,23.07363 -10.75466,9.5671 -31.18849,9.5671 z M 237.44822,251.49783 q -4.30188,0 -4.30188,-5.06494 v -1.12552 q 0,-1.12556 0.53774,-1.12556 11.83013,-23.63639 23.12252,-51.77494 11.83012,-28.70133 19.35838,-55.71434 8.06601,-27.57579 8.06601,-47.835564 0,-30.952399 -20.97161,-30.952399 -14.51878,0 -29.03756,15.194818 -13.98107,14.632041 -19.89612,36.017355 v 0.56277 q 0,4.50217 -4.83961,4.50217 -4.8396,0 -4.8396,-4.50217 v -0.56277 -1.12554 q 9.14146,-25.32471 25.27346,-42.207845 16.66972,-17.445901 33.33943,-17.445901 30.11305,0 30.11305,40.519511 0,20.822545 -8.066,49.523885 -7.52824,28.13855 -19.35836,56.83988 -11.29241,28.70131 -23.12252,52.3377 -1.07548,3.9394 -5.37733,3.9394 z m -134.97101,-95.6711 q -6.990508,0 -10.754636,-5.62769 -3.764137,-6.19049 -3.764137,-15.19483 0,-26.45024 18.820653,-38.268438 18.82065,-11.81819 50.54691,-11.81819 13.98105,0 32.80171,2.25108 18.82066,1.688316 43.55637,7.878808 l 113.46166,27.01301 q 24.73571,6.19048 40.32998,6.19048 11.2924,0 18.28291,-2.81386 7.52827,-2.81385 7.52827,-7.87878 0,-4.50218 -4.83958,-6.75326 -4.30188,-2.81386 -9.14149,-6.75328 -4.83958,-4.502158 -4.83958,-12.94371 0,-7.878805 4.83958,-10.692656 5.37735,-3.376635 10.21694,-3.376635 7.52827,0 10.75466,6.190486 3.76413,6.190478 3.76413,16.320367 0,25.887468 -19.35838,37.705668 -19.35839,11.81819 -51.08465,11.81819 -15.05651,0 -33.33945,-2.25108 -18.28291,-2.81386 -42.48089,-8.44156 l -113.9994,-28.13858 q -11.83012,-2.81385 -22.04706,-3.93938 -10.21691,-1.12554 -17.74518,-1.12554 -25.273427,0 -25.273427,10.12986 0,4.50219 4.301847,7.31604 4.83959,2.81385 9.14146,6.75326 4.83959,3.93939 4.83959,11.81817 0,9.00436 -5.37732,11.81822 -4.8396,2.81383 -9.14149,2.81383 z"
     id="text2"
     style="font-size:549.097px;font-family:'Cormorant Garamond';-inkscape-font-specification:'Cormorant Garamond, Normal';fill:#5c2737;stroke-width:1.26949"
     aria-label="❦" />
</svg>
